<?xml version="1.0" encoding="UTF-8"?>
<svg width="24px" height="24px" viewBox="0 0 24 24" version="1.1" xmlns="http://www.w3.org/2000/svg" xmlns:xlink="http://www.w3.org/1999/xlink">
    <!-- Generator: Sketch 55.2 (78181) - https://sketchapp.com -->
    <title>ico_plusminus</title>
    <desc>Created with Sketch.</desc>
    <g id="ico_plusminus" stroke="none" stroke-width="1" fill="none" fill-rule="evenodd">
        <path d="M12,8.31999993 C12,7.5909841 12.5909841,7 13.3199999,7 L19.6800001,7 C20.4090159,7 21,7.5909841 21,8.31999993 L21,14.6800001 C21,15.4090159 20.4090159,16 19.6800001,16 L13.3199999,16 C12.5909841,16 12,15.4090159 12,14.6800001 C12,15.4090159 11.4090159,16 10.6800001,16 L4.31999993,16 C3.5909841,16 3,15.4090159 3,14.6800001 L3,8.31999993 C3,7.5909841 3.5909841,7 4.31999993,7 L10.6800001,7 C11.4090159,7 12,7.5909841 12,8.31999993 Z M4.31999993,8 C4.14326885,8 4,8.14326885 4,8.31999993 L4,14.6800001 C4,14.8567311 4.14326885,15 4.31999993,15 L10.6800001,15 C10.8567311,15 11,14.8567311 11,14.6800001 L11,8.31999993 C11,8.14326885 10.8567311,8 10.6800001,8 L4.31999993,8 Z M5,12 L5,11 L10,11 L10,12 L5,12 Z M13.3199999,8 C13.1432689,8 13,8.14326885 13,8.31999993 L13,14.6800001 C13,14.8567311 13.1432689,15 13.3199999,15 L19.6800001,15 C19.8567311,15 20,14.8567311 20,14.6800001 L20,8.31999993 C20,8.14326885 19.8567311,8 19.6800001,8 L13.3199999,8 Z M17,11 L19,11 L19,12 L17,12 L17,14 L16,14 L16,12 L14,12 L14,11 L16,11 L16,9 L17,9 L17,11 Z" fill="#FFFFFF" fill-rule="nonzero"></path>
    </g>
</svg>