<?xml version="1.0" encoding="UTF-8"?>
<svg width="24px" height="24px" viewBox="0 0 24 24" version="1.1" xmlns="http://www.w3.org/2000/svg" xmlns:xlink="http://www.w3.org/1999/xlink">
    <!-- Generator: Sketch 55.2 (78181) - https://sketchapp.com -->
    <title>ico_singletouch</title>
    <desc>Created with Sketch.</desc>
    <g id="ico_singletouch" stroke="none" stroke-width="1" fill="none" fill-rule="evenodd">
        <circle id="point" fill="#7699A2" cx="11.000701" cy="5" r="2"></circle>
        <path d="M12.4872875,20.5116313 C12.1654064,20.443385 12.0215195,20.3428133 11.7448635,20.1980963 C11.4545305,20.0462247 11.1972457,19.841664 10.9940045,19.6011069 C10.90397,19.4945417 9.76771107,18.083521 8.46898449,16.4655049 C6.82077237,14.4120832 6.09107307,13.4813147 6.05272792,13.383448 C5.98496932,13.2105103 5.98230467,12.9806666 6.04595804,12.7994992 C6.11160545,12.6126563 6.36369904,12.3539264 6.58340182,12.247907 C6.8238388,12.1318823 7.13273642,12.128629 7.35225142,12.2398077 C7.54879887,12.3393552 7.58910841,12.3823759 8.70298726,13.6813824 C9.68073827,14.8216371 9.72085138,14.8605107 9.91971237,14.8605107 C10.0276364,14.8605107 10.1842215,14.7795261 10.2454778,14.6920278 C10.2967305,14.6188182 10.3000304,14.3850151 10.3141998,9.82290011 L10.3290849,5.0306746 L10.393455,4.91519927 C10.4694419,4.77888418 10.6155383,4.63959381 10.7607254,4.56503763 C10.838622,4.52503646 10.9287682,4.51163131 11.1179453,4.51163131 C11.4031508,4.51163131 11.5357031,4.56160663 11.7043611,4.73223936 C11.9031914,4.93339764 11.8919218,4.73599242 11.8919218,8.01767105 L11.8919218,10.9920875 L12.3086784,10.9920875 L12.7254351,10.9920875 L12.7254351,10.5757766 C12.7294132,10.2873 12.7441733,10.107958 12.7697156,10.0377506 C12.8753553,9.74738318 13.1599578,9.54595851 13.464592,9.54595851 C13.7179624,9.54595851 13.8534297,9.59874125 14.0253387,9.76444488 C14.2027773,9.93547867 14.2854604,10.153533 14.2733878,10.4186078 L14.2841662,10.9674449 L14.6854086,10.9674449 L15.0776473,10.9674449 L15.0839436,10.7092735 C15.0914309,10.0353531 15.1120129,9.66216529 15.1456896,9.58970993 C15.2712304,9.31961729 15.4809419,9.21317438 15.8808767,9.21655231 C16.2544791,9.2197079 16.4179184,9.32645403 16.5435534,9.6493628 L16.6102006,9.82066055 L16.6183317,10.6425258 L16.6007845,11.1388734 L17.0159319,11.1388734 L17.4310796,11.1388734 L17.4651214,10.9984099 L17.4734849,10.629436 L17.542776,10.4629898 C17.6847431,10.1219683 17.8206096,10.0372804 18.2241789,10.0382591 C18.5635044,10.0390685 18.70146,10.0957292 18.8127866,10.2799539 C18.9394964,10.4896347 19.0018561,11.0974963 18.9998656,12.1035389 C18.9996669,16.0094147 18.99243,18.0226789 18.978155,18.1433313 C18.8479248,19.2448413 18.0564007,20.1351282 16.9376542,20.4384372 C16.7032786,20.5019797 16.6681603,20.5031044 14.719914,20.5094532 C12.8864583,20.5154279 12.7216411,20.511939 12.4872896,20.4622557 L12.4872875,20.5116313 Z" id="hand" fill="#FFFFFF" fill-rule="nonzero" transform="translate(12.500000, 12.511631) rotate(-360.000000) translate(-12.500000, -12.511631) "></path>
    </g>
</svg>