<!-- Generated by IcoMoon.io -->
<svg version="1.1" xmlns="http://www.w3.org/2000/svg" width="32" height="32" viewBox="0 0 32 32">
<title>settings</title>
<path fill="#1a2b4b" d="M19.234 2v3.783l1.706 0.704 2.673-2.673 4.574 4.574-2.673 2.674 0.704 1.704h3.782v6.468h-3.781l-0.705 1.705 2.673 2.674-4.574 4.574-2.673-2.673-1.706 0.704v3.782h-6.468v-3.781l-1.705-0.705-2.674 2.673-4.574-4.574 2.674-2.673-0.705-1.706h-3.782v-6.468h3.782l0.704-1.705-2.673-2.673 4.574-4.574 2.674 2.673 1.705-0.704v-3.783h6.468zM17.734 3.5h-3.468v3.285l-3.557 1.472-2.322-2.321-2.452 2.452 2.321 2.321-1.472 3.557h-3.284v3.468h3.284l1.473 3.558-2.322 2.321 2.452 2.453 2.322-2.322 3.557 1.473v3.283h3.468v-3.284l3.557-1.472 2.322 2.322 2.453-2.453-2.322-2.32 1.471-3.559h3.285v-3.468h-3.284l-1.472-3.558 2.322-2.32-2.453-2.452-2.322 2.321-3.557-1.472v-3.285zM16 10.5c3.038 0 5.5 2.463 5.5 5.5 0 3.038-2.462 5.5-5.5 5.5s-5.5-2.462-5.5-5.5c0-3.037 2.462-5.5 5.5-5.5zM16 12c-2.206 0-4 1.795-4 4 0 2.206 1.794 4 4 4s4-1.794 4-4c0-2.205-1.794-4-4-4z"></path>
</svg>
