<!-- Generated by IcoMoon.io -->
<svg version="1.1" xmlns="http://www.w3.org/2000/svg" width="32" height="32" viewBox="0 0 32 32">
<title>zoomIn</title>
<path fill="#1a2b4b" d="M3.5 14c0-5.79 4.71-10.5 10.5-10.5s10.5 4.71 10.5 10.5c0 5.79-4.71 10.5-10.5 10.5s-10.5-4.71-10.5-10.5zM23.159 21.744c1.769-2.091 2.841-4.79 2.841-7.744 0-6.627-5.373-12-12-12s-12 5.373-12 12c0 6.627 5.373 12 12 12 2.954 0 5.654-1.072 7.745-2.842l6.841 6.842h1.414v-1.415l-6.841-6.841zM14.75 9.5h-1.5v3.75h-3.75v1.5h3.75v3.75h1.5v-3.75h3.75v-1.5h-3.75v-3.75z"></path>
</svg>
