<?xml version="1.0" encoding="UTF-8"?>
<svg width="24px" height="24px" viewBox="0 0 24 24" version="1.1" xmlns="http://www.w3.org/2000/svg" xmlns:xlink="http://www.w3.org/1999/xlink">
    <!-- Generator: Sketch 55.2 (78181) - https://sketchapp.com -->
    <title>ico_pinchzoom</title>
    <desc>Created with Sketch.</desc>
    <g id="ico_pinchzoom" stroke="none" stroke-width="1" fill="none" fill-rule="evenodd">
        <g id="ico_pinch" transform="translate(1.000000, 1.000000)">
            <path d="M11.7271318,18.9294283 C11.4052508,18.861182 8.78820137,18.9026851 7.48947478,17.284669 C5.84126266,15.2312472 3.95394088,13.7491351 3.95394088,13.7491351 C3.95394088,13.7491351 3.53673413,13.5767491 3.60038749,13.3955817 C3.6660349,13.2087388 3.60107513,12.8922666 4.48461479,12.6135941 C5.36815444,12.3349216 6.37559593,12.4501285 7.48947478,13.7491351 C8.14130879,14.5093049 8.73056444,14.627156 9.25724174,14.1026885 C9.36845782,13.4991116 9.44448462,13.168157 9.48532212,13.1098247 C9.5365749,13.0366151 9.53987472,12.802812 9.55404416,8.24069707 L9.56892924,3.44847155 L9.63329931,3.33299623 C9.70928625,3.19668114 9.85538269,3.05739077 10.0005698,2.98283459 C10.0784664,2.94283342 10.1686126,2.92942827 10.3577896,2.92942827 C10.6429951,2.92942827 10.7755475,2.97940359 10.9442055,3.15003632 C11.1430358,3.3511946 11.1317662,3.15378938 11.1317662,6.43546801 L11.1317662,9.40988447 L11.5485228,9.40988447 L11.9652794,9.40988447 L11.9652794,8.9935736 C11.9692575,8.70509695 11.9840177,8.52575493 12.00956,8.45554753 C12.1151997,8.16518013 12.3998022,7.96375546 12.7044363,7.96375546 C12.9578067,7.96375546 13.0932741,8.01653821 13.265183,8.18224183 C13.4426217,8.35327562 13.5253047,8.57132994 13.5132321,8.8364048 L13.5240106,9.38524183 L13.9252529,9.38524183 L14.3174916,9.38524183 L14.323788,9.12707044 C14.3312752,8.4531501 14.3518572,8.07996225 14.385534,8.00750688 C14.5110747,7.73741424 14.7207863,7.63097133 15.120721,7.63434926 C15.4943234,7.63750485 15.6577628,7.74425098 15.7833977,8.06715975 L15.850045,8.23845751 L15.858176,9.06032274 L15.8406288,9.5566704 L16.2557762,9.5566704 L16.670924,9.5566704 L16.7049658,9.41620683 L16.7133293,9.04723295 L16.7826203,8.88078672 C16.9245875,8.53976523 17.0604539,8.45507733 17.4640232,8.45605607 C17.8033488,8.45686542 17.9413044,8.51352615 18.052631,8.69775088 C18.1793408,8.90743162 18.2417307,9.51529328 18.2398009,10.5213359 C18.2395416,14.4272117 18.2322744,16.4404758 18.2179994,16.5611283 C18.0877692,17.6626383 17.296245,18.5529251 16.1774986,18.8562342 C15.9431229,18.9197767 15.9080047,18.9209014 13.9597583,18.9272501 C12.7374546,18.9312333 11.9932457,18.9319593 11.7271318,18.9294283 Z" id="hand" fill="#FFFFFF" fill-rule="nonzero" transform="translate(10.916790, 10.930166) rotate(-315.000000) translate(-10.916790, -10.930166) "></path>
            <polygon id="r" fill="#478697" points="16 2 19 2 19 5"></polygon>
            <polygon id="l" fill="#478697" transform="translate(5.500000, 4.500000) rotate(-180.000000) translate(-5.500000, -4.500000) " points="4 3 7 3 7 6"></polygon>
        </g>
    </g>
</svg>