<!-- Generated by IcoMoon.io -->
<svg version="1.1" xmlns="http://www.w3.org/2000/svg" width="32" height="32" viewBox="0 0 32 32">
<title>zoomOut</title>
<path fill="#1a2b4b" d="M14 2c6.627 0 12 5.373 12 12 0 2.831-0.985 5.428-2.624 7.479l-0.217 0.265 6.841 6.841v1.415h-1.414l-6.841-6.842c-2.091 1.77-4.791 2.842-7.745 2.842-6.627 0-12-5.373-12-12s5.373-12 12-12zM14 3.5c-5.79 0-10.5 4.71-10.5 10.5s4.71 10.5 10.5 10.5c5.79 0 10.5-4.71 10.5-10.5s-4.71-10.5-10.5-10.5zM18.471 13.25v1.5h-9v-1.5h9z"></path>
</svg>
