<?xml version="1.0" encoding="UTF-8"?>
<svg width="24px" height="24px" viewBox="0 0 24 24" version="1.1" xmlns="http://www.w3.org/2000/svg" xmlns:xlink="http://www.w3.org/1999/xlink">
    <!-- Generator: Sketch 55.2 (78181) - https://sketchapp.com -->
    <title>ico_cursor</title>
    <desc>Created with Sketch.</desc>
    <g id="ico_cursor" stroke="none" stroke-width="1" fill="none" fill-rule="evenodd">
        <path d="M16,13.5 C16,12.6715729 16.6715729,12 17.5,12 L22.5,12 C23.3284271,12 24,12.6715729 24,13.5 L24,18.5 C24,19.3284271 23.3284271,20 22.5,20 L17.5,20 C16.6715729,20 16,19.3284271 16,18.5 C16,19.3284271 15.3284271,20 14.5,20 L9.5,20 C8.67157288,20 8,19.3284271 8,18.5 C8,19.3284271 7.32842712,20 6.5,20 L1.5,20 C0.671572875,20 0,19.3284271 0,18.5 L0,13.5 C0,12.6715729 0.671572875,12 1.5,12 L6.5,12 C7.32842712,12 8,12.6715729 8,13.5 C8,12.6715729 8.67157288,12 9.5,12 C8.67157288,12 8,11.3284271 8,10.5 L8,5.5 C8,4.67157288 8.67157288,4 9.5,4 L14.5,4 C15.3284271,4 16,4.67157288 16,5.5 L16,10.5 C16,11.3284271 15.3284271,12 14.5,12 C15.3284271,12 16,12.6715729 16,13.5 Z M1.5,13 C1.22385763,13 1,13.2238576 1,13.5 L1,18.5 C1,18.7761424 1.22385763,19 1.5,19 L6.5,19 C6.77614237,19 7,18.7761424 7,18.5 L7,13.5 C7,13.2238576 6.77614237,13 6.5,13 L1.5,13 Z M9.5,13 C9.22385763,13 9,13.2238576 9,13.5 L9,18.5 C9,18.7761424 9.22385763,19 9.5,19 L14.5,19 C14.7761424,19 15,18.7761424 15,18.5 L15,13.5 C15,13.2238576 14.7761424,13 14.5,13 L9.5,13 Z M9.5,5 C9.22385763,5 9,5.22385763 9,5.5 L9,10.5 C9,10.7761424 9.22385763,11 9.5,11 L14.5,11 C14.7761424,11 15,10.7761424 15,10.5 L15,5.5 C15,5.22385763 14.7761424,5 14.5,5 L9.5,5 Z M17.5,13 C17.2238576,13 17,13.2238576 17,13.5 L17,18.5 C17,18.7761424 17.2238576,19 17.5,19 L22.5,19 C22.7761424,19 23,18.7761424 23,18.5 L23,13.5 C23,13.2238576 22.7761424,13 22.5,13 L17.5,13 Z M10.3899268,8.51259149 L11.7657394,6.7928258 C11.8692422,6.66344722 12.0580299,6.64247081 12.1874085,6.74597367 C12.2047079,6.7598132 12.2204211,6.77552639 12.2342606,6.7928258 L13.6100732,8.51259149 C13.7135761,8.64197007 13.6925996,8.83075778 13.5632211,8.93426064 C13.5100271,8.97681577 13.443934,9 13.3758125,9 L10.6241875,9 C10.458502,9 10.3241875,8.86568542 10.3241875,8.7 C10.3241875,8.63187855 10.3473717,8.5657854 10.3899268,8.51259149 Z M4.51259149,17.6100732 L2.7928258,16.2342606 C2.66344722,16.1307578 2.64247081,15.9419701 2.74597367,15.8125915 C2.7598132,15.7952921 2.77552639,15.7795789 2.7928258,15.7657394 L4.51259149,14.3899268 C4.64197007,14.2864239 4.83075778,14.3074004 4.93426064,14.4367789 C4.97681577,14.4899729 5,14.556066 5,14.6241875 L5,17.3758125 C5,17.541498 4.86568542,17.6758125 4.7,17.6758125 C4.63187855,17.6758125 4.5657854,17.6526283 4.51259149,17.6100732 Z M19,17.3758125 L19,14.6241875 C19,14.458502 19.1343146,14.3241875 19.3,14.3241875 C19.3681214,14.3241875 19.4342146,14.3473717 19.4874085,14.3899268 L21.2071742,15.7657394 C21.3365528,15.8692422 21.3575292,16.0580299 21.2540263,16.1874085 C21.2401868,16.2047079 21.2244736,16.2204211 21.2071742,16.2342606 L19.4874085,17.6100732 C19.3580299,17.7135761 19.1692422,17.6925996 19.0657394,17.5632211 C19.0231842,17.5100271 19,17.443934 19,17.3758125 Z M10.6241875,15 L13.3758125,15 C13.541498,15 13.6758125,15.1343146 13.6758125,15.3 C13.6758125,15.3681214 13.6526283,15.4342146 13.6100732,15.4874085 L12.2342606,17.2071742 C12.1307578,17.3365528 11.9419701,17.3575292 11.8125915,17.2540263 C11.7952921,17.2401868 11.7795789,17.2244736 11.7657394,17.2071742 L10.3899268,15.4874085 C10.2864239,15.3580299 10.3074004,15.1692422 10.4367789,15.0657394 C10.4899729,15.0231842 10.556066,15 10.6241875,15 Z" fill="#FFFFFF" fill-rule="nonzero"></path>
    </g>
</svg>