<?xml version="1.0" encoding="UTF-8"?>
<svg width="300px" height="30px" viewBox="0 0 300 30" version="1.1" xmlns="http://www.w3.org/2000/svg" xmlns:xlink="http://www.w3.org/1999/xlink">
    <title>lineIcons</title>
    <g id="lineIcons" stroke="none" stroke-width="1" fill="none" fill-rule="evenodd">
        <path d="M285.5,7 C290.19442,7 294,10.8055796 294,15.5 C294,20.1944204 290.19442,24 285.5,24 C280.80558,24 277,20.1944204 277,15.5 C277,10.8055796 280.80558,7 285.5,7 Z M285.5,8.7 C281.744464,8.7 278.7,11.7444637 278.7,15.5 C278.7,19.2555363 281.744464,22.3 285.5,22.3 C289.255536,22.3 292.3,19.2555363 292.3,15.5 C292.3,11.7444637 289.255536,8.7 285.5,8.7 Z M286.35,14.65 L286.35,16.35 L284.65,16.35 L284.65,14.65 L286.35,14.65 Z" id="Combined-Shape" fill="#1A2B4B"></path>
        <path d="M264,9.55 L264,11.25 L262.3,11.25 L262.3,24 L248.7,24 L248.7,11.25 L247,11.25 L247,9.55 L264,9.55 Z M260.6,11.25 L250.4,11.25 L250.4,22.3 L260.6,22.3 L260.6,11.25 Z M254.65,12.95 L254.65,21.45 L252.95,21.45 L252.95,12.95 L254.65,12.95 Z M258.05,12.95 L258.05,21.45 L256.35,21.45 L256.35,12.95 L258.05,12.95 Z M258.05,7 L258.05,8.7 L252.95,8.7 L252.95,7 L258.05,7 Z" id="bin" fill="#1A2B4B"></path>
        <path d="M230.31764,7 L231.53296,8.2360075 L232.74404,9.44862231 L234,10.6441547 L232.74404,11.8738519 L220.63324,24 L217,24 L217,20.3621556 L229.1108,8.2360075 L230.31764,7 Z M228.80803,13.3896204 L227.59695,12.1770056 L218.712726,21.0724889 L218.712726,22.2851037 L219.923806,22.2851037 L228.80803,13.3896204 Z M230.32188,9.44862231 L228.80803,10.9643908 L230.01911,12.1770056 L231.53296,10.6612371 L230.32188,9.44862231 Z" id="pencil-copy" fill="#1A2B4B"></path>
        <path d="M204,9.55 L204,11.25 L202.3,11.25 L202.3,24 L188.7,24 L188.7,11.25 L187,11.25 L187,9.55 L204,9.55 Z M200.6,11.25 L190.4,11.25 L190.4,22.3 L200.6,22.3 L200.6,11.25 Z M194.65,12.95 L194.65,21.45 L192.95,21.45 L192.95,12.95 L194.65,12.95 Z M198.05,12.95 L198.05,21.45 L196.35,21.45 L196.35,12.95 L198.05,12.95 Z M198.05,7 L198.05,8.7 L192.95,8.7 L192.95,7 L198.05,7 Z" id="bin" fill="#1A2B4B"></path>
        <path d="M170.31764,7 L171.53296,8.2360075 L172.74404,9.44862231 L174,10.6441547 L172.74404,11.8738519 L160.63324,24 L157,24 L157,20.3621556 L169.1108,8.2360075 L170.31764,7 Z M168.80803,13.3896204 L167.59695,12.1770056 L158.712726,21.0724889 L158.712726,22.2851037 L159.923806,22.2851037 L168.80803,13.3896204 Z M170.32188,9.44862231 L168.80803,10.9643908 L170.01911,12.1770056 L171.53296,10.6612371 L170.32188,9.44862231 Z" id="pencil" fill="#1A2B4B"></path>
        <path d="M129.344491,17.7124998 C128.592841,16.7117521 128.131242,15.5096525 128.023603,14.2189683 L128.023603,14.2189683 L128.005979,13.9410783 L128,13.6575894 C128,13.51304 128.00451,13.3736917 128.013143,13.246242 C128.220925,9.74543596 131.059724,7 134.5,7 C137.94009,7 140.778926,9.74519306 140.98841,13.2585077 L140.98841,13.2585077 L140.99709,13.4597704 L141,13.6575894 C141,15.2383252 140.459331,16.7360368 139.489767,17.9244043 L139.525312,17.878501 L139.378224,18.1179924 C138.458735,19.5733303 137.14227,21.2081533 135.428085,23.0281521 L135.428085,23.0281521 L134.5,24 L133.920055,23.3946226 C131.917037,21.3037676 130.425183,19.4514588 129.44283,17.8286263 L129.468187,17.8710112 Z M134.5,8.66439734 C131.920089,8.66439734 129.790869,10.7235913 129.63471,13.3541548 C129.628272,13.4495037 129.625,13.5506125 129.624797,13.639009 L129.624797,13.639009 L129.629963,13.8852899 C129.678148,14.9880095 130.077171,16.0236352 130.756772,16.8563844 L130.756772,16.8563844 L130.823917,16.9515808 C131.62774,18.2794852 132.827245,19.8076165 134.421289,21.5297441 L134.421289,21.5297441 L134.499188,21.6134086 L134.892196,21.1879787 C136.228037,19.7179965 137.267564,18.3939947 138.009773,17.2203815 L138.009773,17.2203815 L138.175774,16.9522193 L138.242835,16.8571313 C138.970356,15.9654284 139.375,14.8445219 139.375099,13.6705519 L139.375099,13.6705519 L139.37305,13.511055 L139.365784,13.3475807 C139.209257,10.7235697 137.079844,8.66439734 134.5,8.66439734 Z M134.5,11.1609933 C135.846194,11.1609933 136.9375,12.2787574 136.9375,13.6575894 C136.9375,15.0364213 135.846194,16.1541854 134.5,16.1541854 C133.153806,16.1541854 132.0625,15.0364213 132.0625,13.6575894 C132.0625,12.2787574 133.153806,11.1609933 134.5,11.1609933 Z M134.5,12.8253907 C134.051269,12.8253907 133.6875,13.1979787 133.6875,13.6575894 C133.6875,14.1172 134.051269,14.489788 134.5,14.489788 C134.948731,14.489788 135.3125,14.1172 135.3125,13.6575894 C135.3125,13.1979787 134.948731,12.8253907 134.5,12.8253907 Z" id="pin" fill="#1A2B4B"></path>
        <path d="M100.4,20.6 L99.55,20.6 L99.55,21.45 L100.4,21.45 L100.4,20.6 Z M111.45,20.6 L110.6,20.6 L110.6,21.45 L111.45,21.45 L111.45,20.6 Z M98.7,15.5 C98.7,16.7389398 99.031335,17.9004922 99.6102284,18.9008806 L102.1,18.9 L102.100117,21.3903488 C103.10028,21.9688853 104.261472,22.3 105.5,22.3 C106.73894,22.3 107.900492,21.968665 108.900881,21.3897716 L108.9,18.9 L111.389772,18.9008806 C111.968665,17.9004922 112.3,16.7389398 112.3,15.5 C112.3,14.2614721 111.968885,13.1002801 111.390349,12.1001172 L108.9,12.1 L108.900881,9.61022843 C107.900492,9.03133498 106.73894,8.7 105.5,8.7 C104.261472,8.7 103.10028,9.03111471 102.100117,9.60965116 L102.1,12.1 L99.6096512,12.1001172 C99.0311147,13.1002801 98.7,14.2614721 98.7,15.5 Z M106.35,14.65 L106.35,16.35 L104.65,16.35 L104.65,14.65 L106.35,14.65 Z M111.45,9.55 L110.6,9.55 L110.6,10.4 L111.45,10.4 L111.45,9.55 Z M100.4,9.55 L99.55,9.55 L99.55,10.4 L100.4,10.4 L100.4,9.55 Z M113.151288,11.7931452 C113.695041,12.9134264 114,14.1710997 114,15.5 C114,16.8289003 113.695041,18.0865736 113.151288,19.2068548 L113.15,18.9 L113.15,23.15 L108.9,23.15 L109.206855,23.1512876 C108.086574,23.6950409 106.8289,24 105.5,24 C104.1711,24 102.913426,23.6950409 101.793145,23.1512876 L102.1,23.15 L97.85,23.15 L97.85,18.9 L97.8496827,19.2088534 C97.305322,18.0880695 97,16.8296906 97,15.5 C97,14.1703094 97.305322,12.9119305 97.8496827,11.7911466 L97.85,12.1 L97.85,7.85 L102.1,7.85 L101.791147,7.84968274 C102.911931,7.30532198 104.170309,7 105.5,7 C106.829691,7 108.088069,7.30532198 109.208853,7.84968274 L108.9,7.85 L113.15,7.85 L113.15,12.1 L113.151288,11.7931452 Z" id="drawCircle" fill="#1A2B4B"></path>
        <path d="M71.25,8 L71.25,9.66666667 L79.75,9.66666667 L79.75,8 L84,8 L84,12.1666667 L82.3,12.1666667 L82.3,18.8333333 L84,18.8333333 L84,23 L79.75,23 L79.75,21.3333333 L71.25,21.3333333 L71.25,23 L67,23 L67,18.8333333 L68.7,18.8333333 L68.7,12.1666667 L67,12.1666667 L67,8 L71.25,8 Z M69.55,20.5 L68.7,20.5 L68.7,21.3333333 L69.55,21.3333333 L69.55,20.5 Z M82.3,20.5 L81.45,20.5 L81.45,21.3333333 L82.3,21.3333333 L82.3,20.5 Z M79.75,11.3333333 L71.25,11.3333333 L71.25,12.1666667 L70.4,12.1666667 L70.4,18.8333333 L71.25,18.8333333 L71.25,19.6666667 L79.75,19.6666667 L79.75,18.8333333 L80.6,18.8333333 L80.6,12.1666667 L79.75,12.1666667 L79.75,11.3333333 Z M82.3,9.66666667 L81.45,9.66666667 L81.45,10.5 L82.3,10.5 L82.3,9.66666667 Z M69.55,9.66666667 L68.7,9.66666667 L68.7,10.5 L69.55,10.5 L69.55,9.66666667 Z" id="drawSquare" fill="#1A2B4B"></path>
        <path d="M46.625,7 L46.625,10.309 L48.903,12.052 L53,12.0526316 L53,16.2631579 L50.153,16.263 L49.374,18.789 L50.45,18.7894737 L50.45,23 L46.2,23 L46.2,21.632 L42.8,21.632 L42.8,23 L38.55,23 L38.55,18.7894737 L39.625,18.789 L38.845,16.263 L36,16.2631579 L36,12.0526316 L40.095,12.052 L42.375,10.309 L42.375,7 L46.625,7 Z M41.1,20.4736842 L40.25,20.4736842 L40.25,21.3157895 L41.1,21.3157895 L41.1,20.4736842 Z M48.75,20.4736842 L47.9,20.4736842 L47.9,21.3157895 L48.75,21.3157895 L48.75,20.4736842 Z M45.02,11.21 L43.979,11.21 L40.25,14.061 L40.25,15.057 L41.402,18.789 L42.8,18.7894737 L42.8,19.948 L46.2,19.948 L46.2,18.7894737 L47.596,18.789 L48.75,15.051 L48.75,14.062 L45.02,11.21 Z M38.55,13.7368421 L37.7,13.7368421 L37.7,14.5789474 L38.55,14.5789474 L38.55,13.7368421 Z M51.3,13.7368421 L50.45,13.7368421 L50.45,14.5789474 L51.3,14.5789474 L51.3,13.7368421 Z M44.925,8.68421053 L44.075,8.68421053 L44.075,9.52631579 L44.925,9.52631579 L44.925,8.68421053 Z" id="drawPoly" fill="#1A2B4B"></path>
        <path d="M24,7 L24,11.25 L20.9519,11.25 L11.25,20.9519 L11.25,24 L7,24 L7,19.75 L10.0464,19.75 L19.75,10.0464 L19.75,7 L24,7 Z M9.55,21.45 L8.7,21.45 L8.7,22.3 L9.55,22.3 L9.55,21.45 Z M22.3,8.7 L21.45,8.7 L21.45,9.55 L22.3,9.55 L22.3,8.7 Z" id="drawLine" fill="#1A2B4B"></path>
    </g>
</svg>