<?xml version="1.0" encoding="UTF-8"?>
<svg width="32px" height="32px" viewBox="0 0 32 32" version="1.1" xmlns="http://www.w3.org/2000/svg" xmlns:xlink="http://www.w3.org/1999/xlink">
    <title>Icons/32/compass</title>
    <g id="Icons/32/compass" stroke="none" stroke-width="1" fill="none" fill-rule="evenodd">
        <path d="M16,2 C23.732,2 30,8.268 30,16 C30,23.732 23.732,30 16,30 C8.268,30 2,23.732 2,16 C2,8.268 8.268,2 16,2 Z M16,3.5 C9.107,3.5 3.5,9.107 3.5,16 C3.5,22.892 9.107,28.5 16,28.5 C22.893,28.5 28.5,22.892 28.5,16 C28.5,9.107 22.893,3.5 16,3.5 Z M16,5.83766764 L21.0811662,16 L16,26.1623324 L10.9188338,16 L16,5.83766764 Z M19.404012,16 L16.7495332,16 L16.7502403,16.7742819 L15.2504668,16.774989 L15.2497597,16.0007071 L12.595988,16 L16,22.8080241 L19.404012,16 Z" id="Combined-Shape" fill="#1A2B4B"></path>
    </g>
</svg>