<!-- Generated by IcoMoon.io -->
<svg version="1.1" xmlns="http://www.w3.org/2000/svg" width="32" height="32" viewBox="0 0 32 32">
<title>analysis</title>
<path fill="#1a2b4b" d="M15.5 2v8.91c1.327-1.188 3.079-1.91 5-1.91 4.142 0 7.5 3.358 7.5 7.5 0 1.966-0.756 3.755-1.994 5.093l3.994 3.993v1.414h-1.414l-4.127-4.129c-1.149 0.715-2.506 1.129-3.959 1.129-1.921 0-3.673-0.722-5-1.91v6.41h4.5v-3.5h1.5v5h-19.5v-18.75h6v-9.25h7.5zM14 3.5h-4.5v25h4.5l0-8.255c-0.636-1.102-1-2.381-1-3.745s0.364-2.643 1-3.745l-0-9.255zM8 12.75h-4.5v15.75h4.5v-15.75zM20.5 10.5c-3.314 0-6 2.686-6 6s2.686 6 6 6c3.314 0 6-2.686 6-6s-2.686-6-6-6z"></path>
</svg>
