<?xml version="1.0" encoding="UTF-8"?>
<svg width="40px" height="40px" viewBox="0 0 40 40" version="1.1" xmlns="http://www.w3.org/2000/svg" xmlns:xlink="http://www.w3.org/1999/xlink">
    <!-- Generator: Sketch 56.3 (81716) - https://sketch.com -->
    <title>logo60px</title>
    <desc>Created with Sketch.</desc>
    <g id="Sidebar-fixes" stroke="none" stroke-width="1" fill="none" fill-rule="evenodd">
        <g id="Reference-horizontal" transform="translate(-12.000000, -12.000000)" fill="#1A2B4B" fill-rule="nonzero">
            <g id="logo">
                <path d="M12,52 L12,12 L52,12 L52,52 L12,52 Z M16,48 L48,48 L48,16 L16,16 L16,48 Z M20.7275,39 L20.7275,25.928 L23.9005,25.928 L23.9005,39 L20.7275,39 Z M26.2665,39 L26.2665,25.928 L34.5125,25.928 L34.5125,28.512 L29.4395,28.512 L29.4395,31.115 L33.7715,31.115 L33.7715,33.604 L29.4395,33.604 L29.4395,36.416 L34.6645,36.416 L34.6645,39 L26.2665,39 Z M35.9285,38.373 L35.9285,35.561 C37.1445,36.34 38.4175,36.72 39.6335,36.72 C40.8495,36.72 41.6665,36.112 41.6665,35.219 C41.6665,32.996 35.6245,34.174 35.6245,29.633 C35.6245,27.296 37.6385,25.7 40.5265,25.7 C41.7235,25.7 42.9585,25.928 44.1555,26.403 L44.1555,29.177 C43.0155,28.512 41.8565,28.208 40.7545,28.208 C39.5955,28.208 38.7975,28.759 38.7975,29.595 C38.7975,31.742 44.8205,30.564 44.8205,35.181 C44.8205,37.575 42.7495,39.228 39.8615,39.228 C38.5505,39.228 37.2205,38.943 35.9285,38.373 Z" id="logo60px"></path>
            </g>
        </g>
    </g>
</svg>