<?xml version="1.0" encoding="UTF-8"?>
<svg width="32px" height="32px" viewBox="0 0 32 32" version="1.1" xmlns="http://www.w3.org/2000/svg" xmlns:xlink="http://www.w3.org/1999/xlink">
    <title>Icons/32/layers</title>
    <g id="Icons/32/layers" stroke="none" stroke-width="1" fill="none" fill-rule="evenodd">
        <path d="M16,3.16147451 L29.677051,10 L23.677949,12.9994745 L29.677051,16 L23.677949,18.9994745 L29.677051,22 L16,28.8385255 L2.32294902,22 L8.32194902,18.9994745 L2.32294902,16 L8.32194902,12.9994745 L2.32294902,10 L16,3.16147451 Z M22.000949,19.8374745 L16,22.8385255 L9.99794902,19.8374745 L5.676,22 L16,27.161 L26.323,22 L22.000949,19.8374745 Z M22.000949,13.8374745 L16,16.8385255 L9.99794902,13.8374745 L5.676,16 L16,21.161 L26.323,16 L22.000949,13.8374745 Z M16,4.838 L5.676,10 L16,15.161 L26.323,10 L16,4.838 Z" id="layers" fill="#1A2B4B"></path>
    </g>
</svg>