<?xml version="1.0" encoding="UTF-8"?>
<svg width="16px" height="16px" viewBox="0 0 16 16" version="1.1" xmlns="http://www.w3.org/2000/svg" xmlns:xlink="http://www.w3.org/1999/xlink">
    <!-- Generator: Sketch 59.1 (86144) - https://sketch.com -->
    <title>icons/16/timeseries</title>
    <desc>Created with Sketch.</desc>
    <g id="icons/16/timeseries" stroke="none" stroke-width="1" fill="none" fill-rule="evenodd">
        <path d="M16,15 L16,16 L6.66966448e-14,16 L6.66966448e-14,15 L16,15 Z M11.0249325,0.844080425 L11.9778895,0.852957076 L13.6075792,6.1494487 L15.0514147,3.21665799 C15.1733823,2.96891115 15.4730952,2.86694699 15.720842,2.98891466 C15.9685889,3.11088234 16.070553,3.41059517 15.9485853,3.65834201 L15.9485853,3.65834201 L13.9485853,7.72084201 L13.0221105,7.64704292 L11.4846284,2.65022609 L7.97506745,13.3434196 L7.09778337,13.4845215 L4.47922981,9.93856357 L0.886536685,14.3171583 C0.71137499,14.5306366 0.396320011,14.5616984 0.182841694,14.3865367 C-0.0306366223,14.211375 -0.0616983808,13.89632 0.113463315,13.6828417 L0.113463315,13.6828417 L4.11346331,8.80784169 L4.90221663,8.82797849 L7.32692714,12.1114406 L11.0249325,0.844080425 Z" id="timeseries" fill="#808383"></path>
    </g>
</svg>