<?xml version="1.0" encoding="UTF-8"?>
<svg width="24px" height="24px" viewBox="0 0 24 24" version="1.1" xmlns="http://www.w3.org/2000/svg" xmlns:xlink="http://www.w3.org/1999/xlink">
    <!-- Generator: Sketch 55.2 (78181) - https://sketchapp.com -->
    <title>ico_mouse_left</title>
    <desc>Created with Sketch.</desc>
    <g id="ico_mouse_left" stroke="none" stroke-width="1" fill="none" fill-rule="evenodd">
        <path d="M12.25,6.00614125 C12.1671805,6.00206308 12.0838312,6 12,6 C9.23857625,6 7,8.23857625 7,11 L7,18 C7,20.7614237 9.23857625,23 12,23 C14.7614237,23 17,20.7614237 17,18 L17,11 C17,8.49348128 15.1556315,6.4177379 12.75,6.05587521 L12.75,12.75 L7,12.75 L7,12.25 L12.25,12.25 L12.25,6.00614125 Z M12,5 C15.3137085,5 18,7.6862915 18,11 L18,18 C18,21.3137085 15.3137085,24 12,24 C8.6862915,24 6,21.3137085 6,18 L6,11 C6,7.6862915 8.6862915,5 12,5 Z M11.4472136,3.7236068 C11.323719,3.97059605 11.0233825,4.07070822 10.7763932,3.9472136 C10.529404,3.82371897 10.4292918,3.52338245 10.5527864,3.2763932 L11.5527864,1.2763932 C11.676281,1.02940395 11.9766175,0.92929178 12.2236068,1.0527864 C12.470596,1.17628103 12.5707082,1.47661755 12.4472136,1.7236068 L11.4472136,3.7236068 Z M8.9472136,3.2763932 C9.07070822,3.52338245 8.97059605,3.82371897 8.7236068,3.9472136 C8.47661755,4.07070822 8.17628103,3.97059605 8.0527864,3.7236068 L7.0527864,1.7236068 C6.92929178,1.47661755 7.02940395,1.17628103 7.2763932,1.0527864 C7.52338245,0.92929178 7.82371897,1.02940395 7.9472136,1.2763932 L8.9472136,3.2763932 Z M7.5,4.5 C7.77614237,4.5 8,4.72385763 8,5 C8,5.27614237 7.77614237,5.5 7.5,5.5 L5,5.5 C4.72385763,5.5 4.5,5.27614237 4.5,5 C4.5,4.72385763 4.72385763,4.5 5,4.5 L7.5,4.5 Z" fill="#FFFFFF" fill-rule="nonzero"></path>
    </g>
</svg>