<?xml version="1.0" encoding="utf-8"?>
<!-- Generator: Adobe Illustrator 18.1.1, SVG Export Plug-In . SVG Version: 6.00 Build 0)  -->
<!DOCTYPE svg PUBLIC "-//W3C//DTD SVG 1.1//EN" "http://www.w3.org/Graphics/SVG/1.1/DTD/svg11.dtd">
<svg version="1.1" id="Layer_1" xmlns="http://www.w3.org/2000/svg" xmlns:xlink="http://www.w3.org/1999/xlink" x="0px" y="0px"
	 viewBox="0 0 85 85" enable-background="new 0 0 85 85" xml:space="preserve">
<g>
	<path fill="#FFFFFF" d="M0,0v85h85V0H0z M76.7,76.7H8.3V8.3h68.4V76.7z"/>
	<rect x="17.7" y="27.8" fill="#FFFFFF" width="6.8" height="29.1"/>
	<polygon fill="#FFFFFF" points="46.4,51.5 35.8,51.5 35.8,44.8 44.9,44.8 44.9,39.4 35.8,39.4 35.8,33.2 44.9,33.2 46.5,27.8 
		29,27.8 29,56.9 46.4,56.9 	"/>
	<path fill="#FFFFFF" d="M61.4,49.1c0,1.9-2.2,2.6-4.2,2.6c-2.6,0-4.8-0.9-6.7-2.2l0,0V56c2.1,0.9,4.6,1.3,7,1.3
		c6.2,0,11.1-3.4,11.1-8.8c0-9.4-12.4-8.7-12.4-13.2c0-1.8,1.4-2.3,3.1-2.3c2.4,0,4.8,0.7,7.5,2V29c-1.8-0.9-4.5-1.6-7.7-1.6
		c-6.5,0-10,4.1-10,8.5C49,44.9,61.4,44.3,61.4,49.1z"/>
</g>
</svg>
